<svg width="290" height="265" viewBox="0 0 290 265" fill="none" xmlns="http://www.w3.org/2000/svg">
<g clip-path="url(#clip0_345_41)">
<path d="M264.192 253.629C260.546 253.629 257.551 252.49 255.207 250.211C252.863 247.932 251.691 245.425 251.691 242.691V242.007C252.993 238.969 253.644 236.234 253.644 233.804C253.644 231.069 253.253 227.347 252.472 222.638C251.43 218.232 250.91 214.51 250.91 211.472V206.459C251.17 205.091 251.3 203.496 251.3 201.673C251.3 200.002 251.04 197.647 250.519 194.609L240.362 195.293C235.153 195.749 231.377 195.976 229.033 195.976C224.084 195.976 219.006 194.761 213.797 192.33C213.797 189.14 214.448 186.178 215.75 183.443C214.448 179.645 213.797 175.392 213.797 170.682C213.797 166.277 214.839 158.453 216.922 147.211C218.745 137.488 219.657 129.817 219.657 124.196V82.0386C219.657 80.0637 220.568 78.8484 222.391 78.3926C223.694 77.9369 225.256 77.709 227.079 77.709C230.465 77.709 233.2 78.2407 235.283 79.3041C237.627 80.2156 238.799 81.5069 238.799 83.178C238.799 86.5202 238.539 89.4826 238.018 92.0651L237.236 100.952V103.003C236.976 103.611 236.846 104.294 236.846 105.054C236.846 106.269 237.106 107.637 237.627 109.156V110.067C238.408 113.865 238.799 117.891 238.799 122.145C238.799 129.589 237.888 139.235 236.064 151.085C234.241 162.934 233.33 172.581 233.33 180.025C233.33 181.089 233.59 182.836 234.111 185.266C240.101 184.962 244.789 184.507 248.175 183.899C248.175 178.43 248.826 167.72 250.128 151.769C251.17 139.008 251.691 128.525 251.691 120.322C251.691 118.803 252.733 117.587 254.816 116.676C257.16 115.612 259.504 115.081 261.848 115.081L268.099 119.182V130.12C268.099 149.87 267.838 167.492 267.317 182.987C267.578 182.987 267.968 182.987 268.489 182.987C269.271 182.836 270.442 182.76 272.005 182.76C273.828 182.608 276.042 182.532 278.646 182.532C286.46 182.532 290.366 184.127 290.366 187.317C290.366 190.963 285.157 192.786 274.74 192.786C270.312 192.786 268.099 193.47 268.099 194.837C268.099 201.218 268.489 208.661 269.271 217.169C270.052 225.524 271.094 230.462 272.396 231.981C271.875 233.196 271.614 234.639 271.614 236.31C271.614 238.285 272.135 239.804 273.177 240.868V244.97C273.177 247.4 272.396 249.451 270.833 251.122C269.531 252.793 267.317 253.629 264.192 253.629Z" fill="#F02525"/>
<path d="M123.226 260.872C87.9428 250.918 82.0002 204.473 105.398 121.537L107.397 114.454C110.519 103.386 115.434 95.4519 122.139 90.6524C125.471 87.7688 129.866 86.1408 135.322 85.7685C141.112 85.3308 147.652 86.1404 154.942 88.197C196.641 99.9612 206.894 143.401 185.703 218.515C175.253 255.556 154.427 269.675 123.226 260.872ZM130.035 251.801C134.701 253.117 139.116 251.973 143.281 248.368C150.07 243.274 156.63 233.414 162.959 218.79C164.458 215.708 165.812 212.027 167.019 207.747C169.808 197.86 172.639 184.479 175.511 167.605C177.841 151.534 177.277 136.24 173.817 121.721C172.4 114.471 169.441 108.219 164.942 102.967C160.734 97.7969 155.339 94.0444 148.757 91.7095C143.884 92.2464 140.301 93.2273 138.011 94.6521C136.011 96.1592 134.554 98.5361 133.638 101.783C131.348 109.899 129.599 117.213 128.392 123.723L123.022 146.105C122.481 148.024 122.211 151.771 122.211 157.348C122.129 163.219 121.838 167.04 121.338 168.811C120.339 172.353 118.487 180.593 115.781 193.531C113.533 205.961 113.16 217.884 114.661 229.301C115.245 235.042 116.85 239.955 119.475 244.042C122.141 247.98 125.661 250.567 130.035 251.801Z" fill="#F02525"/>
<path d="M53.9026 264.684C50.0027 264.684 46.7991 263.402 44.292 260.836C41.785 258.271 40.5314 255.45 40.5314 252.371V251.602C41.9242 248.182 42.6207 245.103 42.6207 242.367C42.6207 239.289 42.2028 235.099 41.3671 229.798C40.2528 224.839 39.6957 220.649 39.6957 217.229V211.585C39.9743 210.046 40.1136 208.251 40.1136 206.198C40.1136 204.317 39.835 201.667 39.2779 198.246L28.4138 199.016C22.8424 199.529 18.8032 199.785 16.2961 199.785C11.0034 199.785 5.57133 198.417 0 195.681C0 192.09 0.696416 188.755 2.08925 185.677C0.696416 181.402 0 176.613 0 171.312C0 166.353 1.11426 157.546 3.34279 144.891C5.29276 133.946 6.26774 125.31 6.26774 118.983V71.5271C6.26774 69.304 7.24273 67.9359 9.19269 67.4229C10.5855 66.9098 12.2569 66.6533 14.2069 66.6533C17.8282 66.6533 20.7532 67.2519 22.9817 68.4489C25.4888 69.475 26.7424 70.9286 26.7424 72.8097C26.7424 76.572 26.4638 79.9067 25.9067 82.8139L25.071 92.818V95.1267C24.7924 95.8107 24.6531 96.5803 24.6531 97.4353C24.6531 98.8034 24.9317 100.343 25.4888 102.053V103.079C26.3245 107.354 26.7424 111.886 26.7424 116.674C26.7424 125.054 25.7674 135.913 23.8174 149.252C21.8675 162.591 20.8925 173.45 20.8925 181.829C20.8925 183.026 21.171 184.993 21.7282 187.729C28.1352 187.387 33.1494 186.874 36.7708 186.19C36.7708 180.034 37.4672 167.977 38.86 150.021C39.9743 135.656 40.5314 123.857 40.5314 114.622C40.5314 112.912 41.6457 111.544 43.8742 110.518C46.3813 109.321 48.8884 108.722 51.3955 108.722L58.0811 113.339V125.652C58.0811 147.884 57.8025 167.721 57.2454 185.164C57.524 185.164 57.9418 185.164 58.4989 185.164C59.3346 184.993 60.5882 184.907 62.2596 184.907C64.2095 184.736 66.5774 184.651 69.363 184.651C77.72 184.651 81.8985 186.447 81.8985 190.038C81.8985 194.142 76.3272 196.194 65.1845 196.194C60.4489 196.194 58.0811 196.964 58.0811 198.503C58.0811 205.685 58.4989 214.065 59.3346 223.642C60.1703 233.047 61.2846 238.605 62.6774 240.315C62.1203 241.683 61.8417 243.308 61.8417 245.189C61.8417 247.412 62.3989 249.122 63.5131 250.319V254.937C63.5131 257.673 62.6774 259.981 61.006 261.862C59.6132 263.744 57.2454 264.684 53.9026 264.684Z" fill="#F02525"/>
<g clip-path="url(#clip1_345_41)">
<path d="M116.634 19.6216C111.016 53.9397 136.414 59.6613 149.815 58.2323C186.749 72.0009 203.412 97.0341 207.128 107.83C215.323 109.632 234.165 110.952 243.968 101.812C261.469 85.1447 244.833 64.8236 235.649 58.968C226.465 53.1124 196.616 19.051 188.008 12.0739C179.401 5.09672 169.331 12.8242 159.839 19.4296C145.115 -5.43851 122.611 9.64989 116.634 19.6216Z" fill="white"/>
<path fill-rule="evenodd" clip-rule="evenodd" d="M169.386 38.5045C159.577 65.6127 199.167 94.9861 224.321 81.5933C224.321 81.5933 218.375 91.892 204.137 90.5374C207.611 112.177 238.628 108.114 246.354 89.3034C249.121 82.5698 248.268 75.745 245.106 69.8727C240.032 60.4471 221.572 48.6574 222.287 36.439C227.762 52.4127 247.157 55.2096 253.611 71.8359C262.608 95.013 241.362 124.228 205.297 110.088C205.297 110.088 177.85 58.4109 141.857 67.2382L133.64 80.7295C133.64 80.7295 152.606 80.9507 175.614 99.8139C145.886 82.7557 118.528 91.1005 118.528 91.1005L136.033 62.2668C118.493 58.8066 108.571 39.3621 111.837 24.7755C116.599 3.49456 145.073 -10.9839 159.466 14.434C164.838 5.7806 176.764 3.79255 186.183 5.36727C213.648 9.95964 213.098 46.1178 235.28 64.1029C203.857 52.5419 203.642 -5.17233 162.071 20.3346C162.071 20.3346 164.069 24.4929 159.621 29.9693C157.982 7.62345 125.14 -0.315509 119.774 28.3226C116.626 45.1308 131.346 56.5377 147.866 55.9026C147.866 55.9026 145.012 47.2815 149.335 41.8402C149.335 41.8402 148.641 55.4918 163.501 61.7116C163.501 61.7116 158.255 49.2422 169.388 38.5055" fill="#5E5E5E"/>
</g>
</g>
<defs>
<clipPath id="clip0_345_41">
<rect width="290" height="265" fill="white"/>
</clipPath>
<clipPath id="clip1_345_41">
<rect width="159.12" height="117.752" fill="white" transform="matrix(-0.866025 -0.5 -0.5 0.866025 276.367 55.291)"/>
</clipPath>
</defs>
</svg>
