<svg width="115" height="45" viewBox="0 0 115 45" fill="none" xmlns="http://www.w3.org/2000/svg">
<path d="M51.2007 0.624047C40.3228 0.353684 29.039 0.222675 18.8091 3.91644C11.9168 6.41182 3.63342 11.1549 1.13573 18.0815C-1.90061 26.4924 6.44609 33.13 13.8771 36.153C24.2827 40.3838 35.7384 42.6954 46.9088 43.8172C58.3046 44.9669 69.813 44.7772 81.1354 43.4943C89.7922 42.5188 99.0957 41.2198 106.398 36.5582C112.087 32.9202 116.789 25.9326 114.021 19.2206C111.049 11.9931 99.8724 9.37858 92.8801 7.4274C70.4926 1.17453 46.2623 2.65152 25.2097 11.327C24.0394 11.8064 24.7774 13.57 25.9491 13.0819C41.5392 6.65229 58.7749 4.17948 75.8793 6.04411C84.2582 6.95267 92.5408 8.86382 100.405 11.8144C104.532 13.3616 109.24 15.0392 111.555 18.8281C114.378 23.441 111.973 29.1501 108.383 32.603C102.919 37.8587 94.4598 39.7416 86.9286 40.8646C78.0523 42.1885 69.0244 42.8535 60.0014 42.7243C50.224 42.5795 40.4217 41.5285 30.866 39.3744C22.0952 37.4016 9.05482 34.7606 4.11641 26.7842C-2.36757 16.2964 11.9758 7.81482 20.7718 4.80761C30.4492 1.50623 41.0081 1.32273 51.2402 0.969894C51.4806 0.964374 51.4289 0.63441 51.2007 0.624047Z" fill="#F02525"/>
</svg>
