<svg width="64" height="56" viewBox="0 0 64 56" fill="none" xmlns="http://www.w3.org/2000/svg">
<g clip-path="url(#clip0_92_120)">
<path d="M30.156 0.975621C24.1732 1.93784 17.9525 3.11928 11.9406 8.86719C7.88946 12.7481 2.85043 19.5516 0.794405 28.3455C-1.70411 39.0242 2.25879 46.1738 6.06875 48.9982C11.404 52.9504 17.5068 54.4234 23.5681 54.4709C29.7512 54.5257 36.1273 52.9241 42.5073 50.0037C47.3848 47.7773 52.6511 45.0773 57.1403 38.4903C60.6383 33.3509 63.9178 24.22 63.0439 16.3157C62.1078 7.80329 56.1889 5.92549 52.5166 4.36369C40.7596 -0.643787 27.23 4.05011 14.7529 17.1964C14.0597 17.9236 14.2952 19.9993 14.9901 19.2612C24.2302 9.51961 33.9931 4.43612 43.26 4.68897C47.8 4.80687 52.189 6.16609 56.2454 8.85016C58.3739 10.2572 60.8114 11.7551 61.7202 16.1276C62.8291 21.4505 60.9432 28.7398 58.6231 33.4023C55.0916 40.4994 50.2345 43.8154 45.9644 46.0888C40.9316 48.7685 35.8795 50.6581 30.9075 51.5729C25.5203 52.5583 20.2079 52.435 15.1394 50.9291C10.4867 49.5524 3.54074 47.8637 1.59137 38.6665C-0.966635 26.5724 7.78509 14.4621 12.9378 9.72694C18.6062 4.52608 24.4571 3.04505 30.144 1.39517C30.2774 1.3598 30.2811 0.961184 30.156 0.975621Z" fill="#F02525"/>
</g>
<defs>
<clipPath id="clip0_92_120">
<rect width="64" height="56" fill="white"/>
</clipPath>
</defs>
</svg>
