<svg width="17" height="16" viewBox="0 0 17 16" fill="none" xmlns="http://www.w3.org/2000/svg">
<g opacity="0.5">
<path d="M4.45877 10.0999C3.93716 10.0999 3.47574 9.9399 3.07451 9.6199C2.67327 9.2599 2.47266 8.83991 2.47266 8.35991C2.47266 7.8799 2.95414 7.4599 3.9171 7.0999C5.2813 6.5799 7.64858 6.2199 11.019 6.01991C12.3029 5.9399 13.1254 5.8999 13.4865 5.8999C14.0082 5.8999 14.4696 6.0799 14.8708 6.4399C15.272 6.7599 15.4727 7.1599 15.4727 7.6399C15.4727 8.1199 14.9912 8.5399 14.0282 8.8999C12.664 9.4199 10.2967 9.7799 6.92636 9.9799C5.64241 10.0599 4.81988 10.0999 4.45877 10.0999Z" fill="#5E5E5E"/>
</g>
</svg>
