<svg width="32" height="32" viewBox="0 0 32 32" fill="none" xmlns="http://www.w3.org/2000/svg">
<path d="M20.5709 22.3868C18.5067 23.989 15.9095 24.7444 13.3079 24.4992C10.7063 24.254 8.296 23.0266 6.56752 21.0668C4.83904 19.1071 3.92236 16.5623 4.00405 13.9505C4.08574 11.3387 5.15968 8.85613 7.00726 7.00824C8.85516 5.16066 11.3377 4.08672 13.9495 4.00503C16.5613 3.92333 19.1061 4.84002 21.0659 6.5685C23.0256 8.29697 24.253 10.7073 24.4983 13.3089C24.7435 15.9104 23.9881 18.5077 22.3858 20.5719L27.5908 25.7769C27.7598 25.9338 27.8834 26.1334 27.9484 26.3547C28.0135 26.576 28.0177 26.8108 27.9606 27.0343C27.9034 27.2577 27.7871 27.4617 27.6238 27.6246C27.4604 27.7875 27.2562 27.9033 27.0326 27.9598C26.8094 28.0171 26.5749 28.0131 26.3537 27.9483C26.1326 27.8835 25.933 27.7603 25.7759 27.5917L20.5709 22.3868ZM21.9749 14.2712C21.9901 13.2501 21.8021 12.2361 21.4219 11.2883C21.0417 10.3405 20.4768 9.47776 19.7601 8.75028C19.0433 8.02279 18.1891 7.44509 17.2471 7.05076C16.305 6.65644 15.294 6.45337 14.2728 6.45337C13.2515 6.45337 12.2405 6.65644 11.2985 7.05076C10.3564 7.44509 9.50222 8.02279 8.7855 8.75028C8.06878 9.47776 7.50388 10.3405 7.12364 11.2883C6.74341 12.2361 6.55544 13.2501 6.57066 14.2712C6.60082 16.294 7.42556 18.2238 8.86671 19.6436C10.3079 21.0634 12.2497 21.8593 14.2728 21.8593C16.2958 21.8593 18.2377 21.0634 19.6788 19.6436C21.12 18.2238 21.9447 16.294 21.9749 14.2712Z" fill="#5E5E5E"/>
</svg>
