<svg width="17" height="16" viewBox="0 0 17 16" fill="none" xmlns="http://www.w3.org/2000/svg">
<g opacity="0.5">
<path d="M8.87079 14.3661C8.51485 14.3661 8.19997 14.2703 7.92617 14.0786C7.67975 13.887 7.55654 13.6405 7.55654 13.3394C7.55654 12.9013 7.51547 12.2305 7.43333 11.3269C7.3238 10.5603 7.26904 9.90313 7.26904 9.35552V9.06803L6.20121 9.1091C5.65361 9.19124 5.25659 9.23231 5.01017 9.23231C3.83282 9.23231 3.24414 8.79422 3.24414 7.91806C3.24414 7.64425 3.32628 7.39783 3.49056 7.17879C3.68223 6.95974 3.91496 6.85022 4.18876 6.85022L5.3798 6.93237L6.61192 7.01451C6.85834 7.01451 7.17321 6.98713 7.55654 6.93237L7.43333 5.4949C7.35118 4.78301 7.31011 4.26279 7.31011 3.93422C7.31011 2.40093 7.7482 1.63428 8.62437 1.63428C8.92555 1.63428 9.17197 1.75749 9.36364 2.00391C9.5553 2.22295 9.65113 2.49676 9.65113 2.82532V3.31816L9.6922 4.34493C9.6922 4.61873 9.70589 4.83777 9.73327 5.00205C9.73327 5.52228 9.77434 5.98774 9.85648 6.39845C9.91124 6.61749 9.966 6.76808 10.0208 6.85022C10.0755 6.95974 10.144 7.01451 10.2261 7.01451L11.2529 6.93237C11.6088 6.8776 12.0606 6.85022 12.6082 6.85022C14.0046 6.85022 14.7028 7.26093 14.7028 8.08234C14.7028 8.4109 14.5933 8.6847 14.3742 8.90374C14.1552 9.09541 13.8814 9.19124 13.5528 9.19124C13.3064 9.19124 12.9094 9.15017 12.3618 9.06803L11.1297 8.98589C10.2535 8.98589 9.81541 9.31445 9.81541 9.97158C9.81541 10.2454 9.88386 10.793 10.0208 11.6144C10.1577 12.4358 10.2261 12.9834 10.2261 13.2572C10.2261 13.5858 10.0892 13.8596 9.81541 14.0786C9.54161 14.2703 9.22674 14.3661 8.87079 14.3661Z" fill="#5E5E5E"/>
</g>
</svg>
