<svg aria-hidden="true" style="position: absolute; width: 0; height: 0; overflow: hidden;" version="1.1" xmlns="http://www.w3.org/2000/svg" xmlns:xlink="http://www.w3.org/1999/xlink">
<defs>
<symbol id="icon-search" viewBox="0 0 32 32">
  <path d="M20.571 22.387c-2.064 1.602-4.661 2.358-7.263 2.112s-5.012-1.473-6.74-3.432c-1.728-1.96-2.645-4.505-2.563-7.116s1.156-5.094 3.003-6.942c1.848-1.848 4.33-2.922 6.942-3.003s5.157 0.835 7.116 2.563c1.96 1.728 3.187 4.139 3.432 6.74s-0.51 5.199-2.113 7.263l5.205 5.205c0.169 0.157 0.293 0.357 0.358 0.578s0.069 0.456 0.012 0.68c-0.057 0.223-0.174 0.427-0.337 0.59s-0.368 0.279-0.591 0.335c-0.223 0.057-0.458 0.053-0.679-0.012s-0.421-0.188-0.578-0.357l-5.205-5.205zM21.975 14.271c0.015-1.021-0.173-2.035-0.553-2.983s-0.945-1.811-1.662-2.538c-0.717-0.727-1.571-1.305-2.513-1.7s-1.953-0.597-2.974-0.597c-1.021 0-2.032 0.203-2.974 0.597s-1.796 0.972-2.513 1.7-1.282 1.59-1.662 2.538c-0.38 0.948-0.568 1.962-0.553 2.983 0.030 2.023 0.855 3.953 2.296 5.372s3.383 2.216 5.406 2.216c2.023 0 3.965-0.796 5.406-2.216s2.266-3.35 2.296-5.372z"></path>
</symbol>
<symbol id="icon-cartIcon" viewBox="0 0 32 32">
  <path fill="#f7f4f0" style="fill: var(--color2, #f7f4f0)" d="M30.751 11.749h-4.094l-5.95-9.942c-0.174-0.29-0.444-0.492-0.751-0.56s-0.626 0.002-0.887 0.195c-0.261 0.194-0.442 0.495-0.503 0.837s0.002 0.698 0.175 0.988l5.077 8.482h-14.49l5.077-8.482c0.088-0.144 0.15-0.306 0.181-0.476s0.033-0.346 0.003-0.517c-0.030-0.171-0.090-0.333-0.176-0.478s-0.198-0.269-0.328-0.366c-0.13-0.097-0.276-0.163-0.429-0.197s-0.311-0.032-0.464 0.003c-0.153 0.035-0.298 0.104-0.427 0.202s-0.239 0.224-0.325 0.369l-5.95 9.942h-4.094c-0.313 0-0.614 0.139-0.835 0.385s-0.346 0.582-0.346 0.931c0 0.349 0.124 0.684 0.346 0.931s0.522 0.385 0.835 0.385h0.607l2.454 13.668c0.198 1.093 0.729 2.076 1.504 2.783s1.744 1.094 2.745 1.096h13.738c2.059 0 3.844-1.632 4.249-3.88l2.454-13.668h0.606c0.313 0 0.614-0.139 0.835-0.385s0.346-0.582 0.346-0.931c0-0.349-0.124-0.684-0.346-0.931s-0.524-0.385-0.837-0.385zM25.373 27.533c-0.090 0.497-0.332 0.944-0.684 1.265s-0.793 0.498-1.248 0.499h-13.737c-0.455-0.001-0.896-0.177-1.248-0.499s-0.593-0.768-0.684-1.265l-2.361-13.152h22.322l-2.361 13.152zM18.542 23.593v-3.509c0-0.349 0.125-0.684 0.346-0.931s0.522-0.385 0.835-0.385c0.313 0 0.614 0.139 0.835 0.385s0.346 0.581 0.346 0.931v3.509c0 0.349-0.125 0.684-0.346 0.931s-0.522 0.386-0.835 0.386-0.614-0.139-0.835-0.386c-0.222-0.247-0.346-0.581-0.346-0.931zM12.241 23.593v-3.509c0-0.349 0.124-0.684 0.346-0.931s0.522-0.385 0.835-0.385 0.614 0.139 0.835 0.385c0.222 0.247 0.346 0.581 0.346 0.931v3.509c0 0.349-0.124 0.684-0.346 0.931s-0.522 0.386-0.835 0.386-0.614-0.139-0.835-0.386c-0.222-0.247-0.346-0.581-0.346-0.931z"></path>
</symbol>
</defs>
</svg>
