<svg width="69" height="53" viewBox="0 0 69 53" fill="none" xmlns="http://www.w3.org/2000/svg">
<g clip-path="url(#clip0_92_120)">
<path d="M45.9121 3.97819C40.2472 1.82661 34.2668 -0.253661 26.1887 1.72757C20.7414 3.06923 12.9796 6.45075 6.80969 13.0456C-0.684217 21.053 -0.817606 29.2264 1.07474 33.5752C3.72619 39.6624 8.27981 43.9842 13.5088 47.05C18.8398 50.1828 25.1645 51.9765 32.1508 52.6293C37.4886 53.1338 43.3997 53.4219 50.5769 49.9537C56.1729 47.2453 63.5712 40.969 66.7581 33.683C70.1946 25.839 66.0022 21.2581 63.5992 18.0722C55.9093 7.86602 41.8422 5.18246 24.4696 10.349C23.5059 10.6333 22.6743 12.5496 23.6448 12.2567C36.5133 8.42546 47.5105 8.89178 55.4151 13.7351C59.2906 16.1027 62.4158 19.4707 64.5918 23.8209C65.7342 26.1023 67.0991 28.6167 65.7049 32.8594C64.0097 38.0256 58.7381 43.4015 54.4008 46.2844C47.799 50.6724 41.9351 51.1224 37.1002 50.9618C31.4016 50.7727 26.0805 49.8891 21.3153 48.2009C16.1551 46.3666 11.6128 43.6089 7.97186 39.7747C4.62686 36.26 -0.549912 31.3305 2.35015 22.3875C6.16833 10.6303 19.7956 4.50253 26.6238 2.97024C34.1313 1.29167 39.9408 2.92783 45.6924 4.33581C45.8256 4.3717 46.0277 4.02809 45.9121 3.97819Z" fill="#F02525"/>
</g>
<defs>
<clipPath id="clip0_92_120">
<rect width="69" height="53" fill="white"/>
</clipPath>
</defs>
</svg>
