<svg width="115" height="48" viewBox="0 0 115 48" fill="none" xmlns="http://www.w3.org/2000/svg">
<g clip-path="url(#clip0_94_121)">
<path d="M51.1956 1.65547C40.3054 1.46075 29.0076 1.41573 18.7337 5.37963C11.8117 8.05736 3.47833 13.1075 0.920471 20.4037C-2.18895 29.2635 6.11443 36.1672 13.5306 39.2816C23.9153 43.6402 35.3674 45.9743 46.5435 47.0611C57.9451 48.1752 69.4704 47.8815 80.8185 46.441C89.4948 45.3453 98.8214 43.9045 106.172 38.948C111.899 35.0798 116.664 27.7015 113.947 20.6739C111.03 13.1065 99.8605 10.4519 92.8748 8.45973C70.5088 2.07539 46.234 3.82567 25.082 13.1112C23.9063 13.6243 24.6308 15.4708 25.808 14.9485C41.4717 8.06686 58.7508 5.32796 75.8627 7.14622C84.2453 8.03181 92.5233 9.97133 100.374 13.0061C104.493 14.5974 109.195 16.321 111.481 20.2819C114.27 25.1041 111.815 31.1207 108.192 34.7771C102.678 40.3425 94.1915 42.3898 86.641 43.6312C77.7419 45.0946 68.6966 45.8672 59.6625 45.8056C49.8733 45.7337 40.0665 44.7102 30.5157 42.5259C21.7494 40.5257 8.71326 37.8585 3.83372 29.5206C-2.57287 18.5574 11.8593 9.53059 20.6917 6.29962C30.4091 2.75241 40.9836 2.47301 51.2323 2.01843C51.473 2.01065 51.424 1.66448 51.1956 1.65547Z" fill="#F02525"/>
</g>
<defs>
<clipPath id="clip0_94_121">
<rect width="115" height="48" fill="white"/>
</clipPath>
</defs>
</svg>
