<svg width="64" height="64" viewBox="0 0 64 64" fill="none" xmlns="http://www.w3.org/2000/svg">
<g clip-path="url(#clip0_189_96)">
<g clip-path="url(#clip1_189_96)">
<path d="M8.4106 63C7.8756 63 7.6081 62.6916 7.6081 62.0749C7.6081 61.4582 8.03164 61.1499 8.87872 61.1499L12.6906 61.3933V49.6807L10.5506 49.8755C9.65892 49.8755 9.21309 49.5671 9.21309 48.9504C9.21309 48.7232 9.68121 48.5285 10.6175 48.3662C11.5983 48.1714 12.2001 48.074 12.4231 48.074C12.4231 42.1667 11.5983 38.3042 9.94871 36.4865C9.50288 35.9997 8.96788 35.7562 8.34372 35.7562L6.40436 35.8536C5.46812 35.8536 5 35.5452 5 34.9285C5 34.5066 5.31208 34.1982 5.93624 34.0035C7.94247 33.9061 9.79267 33.8574 11.4868 33.8574H17.3718C28.3392 33.8574 36.3641 35.1557 41.4466 37.7524C44.2107 39.1481 45.5928 41.1443 45.5928 43.7409C45.5928 45.6884 44.8349 47.4736 43.319 49.0965C42.6503 49.8105 41.6918 50.4922 40.4434 51.1413C39.1951 51.758 37.7685 52.2449 36.1635 52.6019C34.6031 52.9265 33.065 53.1537 31.5491 53.2836C29.6767 53.4458 27.3138 53.527 24.4605 53.527V60.5656L25.263 61.1499C25.5304 61.1174 25.9317 61.1012 26.4667 61.1012H28.2054C29.9887 61.1012 31.1256 61.1499 31.616 61.2473C32.3293 61.4096 33.0204 61.7828 33.6891 62.3671L32.8198 63H8.4106ZM28.406 51.2874L31.081 51.2387C33.4439 51.1413 35.0712 50.2487 35.9629 48.5609C36.4979 47.4898 36.7654 46.2239 36.7654 44.7633C36.7654 43.2703 36.6762 42.1504 36.4979 41.4039C36.3641 40.6574 36.0743 39.9758 35.6285 39.3591C34.4247 37.7037 31.8612 36.6326 27.9379 36.1457C25.8425 35.886 24.0815 35.7562 22.6548 35.7562C22.6548 36.0159 22.6548 36.2755 22.6548 36.5352C22.6548 41.2092 23.0338 45.1204 23.7917 48.2688C24.0592 49.3074 24.3044 50.0215 24.5273 50.411C24.7948 50.8005 25.1738 51.0439 25.6642 51.1413C26.1546 51.2387 27.0686 51.2874 28.406 51.2874Z" fill="#F02525"/>
</g>
<g clip-path="url(#clip2_189_96)">
<g clip-path="url(#clip3_189_96)">
<path d="M14.1165 25.5981L24.2146 28.1763C27.1722 26.762 29.6834 35.1212 35.6422 36.8154C39.5279 38.0307 41.0549 43.8236 41.5086 44.9963C42.0758 46.4621 53.2777 45.9699 59.0185 39.0298C64.7594 32.0898 55.6846 22.0518 52.6057 21.7602C49.5268 21.4685 42.3127 14.1488 37.0844 6.7344C28.8509 -0.258624 23.9494 6.76105 20.5921 9.40834C9.80259 -4.88711 0.625008 5.53955 1.80362 16.9477C2.7465 26.0742 10.4051 26.5173 14.1165 25.5981Z" fill="white"/>
</g>
<mask id="path-3-inside-1_189_96" fill="white">
<path fill-rule="evenodd" clip-rule="evenodd" d="M24.6452 16.3096C21.1537 28.0719 38.7072 39.5644 49.0606 33.2467C49.0606 33.2467 46.7912 37.7707 40.7081 37.5503C42.724 46.6578 55.8009 44.1577 58.614 35.9729C59.6218 33.043 59.0893 30.1645 57.5994 27.7484C55.2084 23.8703 47.071 19.3216 47.0701 14.1124C49.7947 20.7627 58.1048 21.4673 61.2616 28.3704C65.6626 37.9933 57.3645 50.9361 41.6886 45.828C41.6886 45.828 28.7377 24.5562 13.6655 29.2046L10.5108 35.1417C10.5108 35.1417 18.5745 34.7626 28.8206 42.2032C15.7643 35.6971 4.34867 39.925 4.34867 39.925L11.067 27.2376C3.52853 26.205 -1.17224 18.191 -0.148632 11.912C1.34378 2.75144 13.0809 -4.11041 19.8299 6.33005C21.8967 2.51942 26.9142 1.37726 30.9552 1.81139C42.7389 3.07748 43.4073 18.4539 53.2804 25.5421C39.641 21.4139 38.1103 -3.10215 21.084 8.77209C21.084 8.77209 22.0366 10.489 20.2834 12.9268C19.0295 3.47344 4.87768 0.919584 3.31209 13.2211C2.394 20.441 8.93256 24.9204 15.9359 24.2385C15.9359 24.2385 14.5082 20.6467 16.209 18.227C16.209 18.227 16.2549 24.0446 22.7236 26.3165C22.7236 26.3165 20.1836 21.1495 24.6459 16.31"/>
</mask>
<path fill-rule="evenodd" clip-rule="evenodd" d="M24.6452 16.3096C21.1537 28.0719 38.7072 39.5644 49.0606 33.2467C49.0606 33.2467 46.7912 37.7707 40.7081 37.5503C42.724 46.6578 55.8009 44.1577 58.614 35.9729C59.6218 33.043 59.0893 30.1645 57.5994 27.7484C55.2084 23.8703 47.071 19.3216 47.0701 14.1124C49.7947 20.7627 58.1048 21.4673 61.2616 28.3704C65.6626 37.9933 57.3645 50.9361 41.6886 45.828C41.6886 45.828 28.7377 24.5562 13.6655 29.2046L10.5108 35.1417C10.5108 35.1417 18.5745 34.7626 28.8206 42.2032C15.7643 35.6971 4.34867 39.925 4.34867 39.925L11.067 27.2376C3.52853 26.205 -1.17224 18.191 -0.148632 11.912C1.34378 2.75144 13.0809 -4.11041 19.8299 6.33005C21.8967 2.51942 26.9142 1.37726 30.9552 1.81139C42.7389 3.07748 43.4073 18.4539 53.2804 25.5421C39.641 21.4139 38.1103 -3.10215 21.084 8.77209C21.084 8.77209 22.0366 10.489 20.2834 12.9268C19.0295 3.47344 4.87768 0.919584 3.31209 13.2211C2.394 20.441 8.93256 24.9204 15.9359 24.2385C15.9359 24.2385 14.5082 20.6467 16.209 18.227C16.209 18.227 16.2549 24.0446 22.7236 26.3165C22.7236 26.3165 20.1836 21.1495 24.6459 16.31" fill="#00722A"/>
<path d="M49.0606 33.2467L48.8523 32.9052L50.0443 32.1779L49.4182 33.426L49.0606 33.2467ZM40.7081 37.5503L40.3175 37.6368L40.2058 37.1319L40.7226 37.1506L40.7081 37.5503ZM58.614 35.9729L58.2358 35.8429L58.2358 35.8428L58.614 35.9729ZM57.5994 27.7484L57.259 27.9583L57.259 27.9583L57.5994 27.7484ZM47.0701 14.1124L46.6701 14.1125L47.4402 13.9608L47.0701 14.1124ZM61.2616 28.3704L60.8979 28.5368L60.8979 28.5368L61.2616 28.3704ZM41.6886 45.828L41.5647 46.2083L41.4239 46.1624L41.347 46.036L41.6886 45.828ZM13.6655 29.2046L13.3123 29.0169L13.3898 28.871L13.5477 28.8223L13.6655 29.2046ZM10.5108 35.1417L10.5296 35.5412L9.82797 35.5742L10.1575 34.954L10.5108 35.1417ZM28.8206 42.2032L29.0556 41.8795L28.6422 42.5612L28.8206 42.2032ZM4.34867 39.925L4.48759 40.3001L3.50464 40.6642L3.99517 39.7378L4.34867 39.925ZM11.067 27.2376L11.1213 26.8413L11.6884 26.919L11.4205 27.4248L11.067 27.2376ZM-0.148632 11.912L0.246163 11.9763L0.246157 11.9763L-0.148632 11.912ZM19.8299 6.33005L20.1815 6.52075L19.86 7.11348L19.494 6.5472L19.8299 6.33005ZM30.9552 1.81139L30.9979 1.41367L30.9979 1.41367L30.9552 1.81139ZM53.2804 25.5421L53.5137 25.2171L53.1645 25.9249L53.2804 25.5421ZM21.084 8.77209L20.7343 8.96615L20.5591 8.65049L20.8552 8.444L21.084 8.77209ZM20.2834 12.9268L20.6081 13.1603L20.0194 13.9789L19.8868 12.9794L20.2834 12.9268ZM3.31209 13.2211L2.91528 13.1706L2.91529 13.1706L3.31209 13.2211ZM15.9359 24.2385L16.3076 24.0907L16.5041 24.585L15.9746 24.6366L15.9359 24.2385ZM16.209 18.227L15.8817 17.997L16.5991 16.9764L16.6089 18.2239L16.209 18.227ZM22.7236 26.3165L23.0826 26.1401L23.5142 27.0182L22.591 26.6939L22.7236 26.3165ZM25.0287 16.4234C23.3532 22.0677 26.7126 27.723 31.8854 31.227C37.057 34.7302 43.8583 35.9526 48.8523 32.9052L49.269 33.5881C43.9095 36.8585 36.7573 35.4935 31.4367 31.8893C26.1173 28.286 22.4457 22.3138 24.2617 16.1958L25.0287 16.4234ZM49.0606 33.2467C49.4182 33.426 49.4181 33.4262 49.418 33.4265C49.4179 33.4266 49.4178 33.4268 49.4177 33.427C49.4175 33.4274 49.4172 33.4279 49.417 33.4284C49.4164 33.4295 49.4158 33.4308 49.4149 33.4324C49.4133 33.4356 49.4111 33.4399 49.4083 33.4452C49.4027 33.4559 49.3948 33.4708 49.3845 33.4895C49.364 33.527 49.3341 33.58 49.2943 33.6464C49.2147 33.7791 49.0956 33.9652 48.9338 34.1863C48.6105 34.6282 48.1149 35.2123 47.4212 35.7888C46.0287 36.946 43.8468 38.0643 40.6936 37.9501L40.7226 37.1506C43.6525 37.2567 45.6469 36.2231 46.9099 35.1735C47.5439 34.6465 47.9959 34.1134 48.2882 33.7139C48.4342 33.5144 48.5399 33.3488 48.6082 33.2349C48.6423 33.178 48.6671 33.1341 48.6828 33.1054C48.6906 33.091 48.6962 33.0805 48.6996 33.0741C48.7013 33.0709 48.7024 33.0687 48.703 33.0675C48.7033 33.067 48.7034 33.0667 48.7035 33.0666C48.7035 33.0666 48.7034 33.0667 48.7034 33.0668C48.7033 33.0668 48.7033 33.067 48.7033 33.067C48.7032 33.0672 48.7031 33.0673 49.0606 33.2467ZM41.0986 37.4639C41.5802 39.6398 42.7124 41.0943 44.1643 41.9527C45.6249 42.8163 47.4421 43.0955 49.3099 42.8496C53.0583 42.3563 56.8865 39.7685 58.2358 35.8429L58.9923 36.1029C57.5285 40.3621 53.4116 43.1167 49.4143 43.6428C47.4093 43.9067 45.4034 43.6147 43.7572 42.6414C42.1023 41.6629 40.8439 40.0146 40.3175 37.6368L41.0986 37.4639ZM58.2358 35.8428C59.1994 33.0412 58.6948 30.2869 57.259 27.9583L57.9399 27.5385C59.4837 30.0422 60.0442 33.0447 58.9923 36.103L58.2358 35.8428ZM57.259 27.9583C56.6902 27.0358 55.7662 26.0545 54.6689 25.003C54.1228 24.4797 53.5411 23.9459 52.9462 23.3972C52.3526 22.8497 51.747 22.2885 51.1594 21.7161C49.9862 20.5732 48.8695 19.371 48.045 18.1148C47.2204 16.8582 46.6703 15.5207 46.6701 14.1125L47.4701 14.1123C47.4703 15.3087 47.9377 16.4932 48.7138 17.6758C49.4901 18.8587 50.5574 20.0128 51.7176 21.143C52.2966 21.7071 52.895 22.2617 53.4886 22.8091C54.0808 23.3553 54.6694 23.8955 55.2224 24.4254C56.3234 25.4804 57.3132 26.5219 57.9399 27.5385L57.259 27.9583ZM47.4402 13.9608C48.7491 17.1555 51.3974 18.9331 54.2253 20.8135C57.0259 22.6758 59.9929 24.6341 61.6254 28.2041L60.8979 28.5368C59.3736 25.2036 56.607 23.358 53.7823 21.4797C50.9847 19.6194 48.1156 17.7196 46.6999 14.2641L47.4402 13.9608ZM61.6254 28.204C63.8939 33.1643 62.8893 38.9773 59.2988 42.8937C55.6927 46.8269 49.5275 48.8031 41.5647 46.2083L41.8125 45.4477C49.5255 47.961 55.3473 46.0199 58.7091 42.353C62.0863 38.6694 63.0303 33.1994 60.8979 28.5368L61.6254 28.204ZM41.6886 45.828C41.347 46.036 41.347 46.036 41.3469 46.036C41.3469 46.0358 41.3468 46.0357 41.3466 46.0354C41.3463 46.0349 41.3458 46.0341 41.3451 46.0329C41.3437 46.0306 41.3415 46.0271 41.3385 46.0223C41.3326 46.0126 41.3235 45.998 41.3114 45.9785C41.2872 45.9395 41.2506 45.8813 41.2021 45.8051C41.1051 45.6529 40.9603 45.4292 40.7704 45.1457C40.3904 44.5784 39.8299 43.7718 39.1102 42.8178C37.6699 40.9086 35.5958 38.4144 33.0575 36.0668C27.9592 31.3516 21.103 27.3294 13.7834 29.5868L13.5477 28.8223C21.3002 26.4314 28.4555 30.7209 33.6007 35.4795C36.1842 37.8688 38.2899 40.402 39.7489 42.336C40.4788 43.3035 41.0479 44.1225 41.435 44.7004C41.6286 44.9894 41.7768 45.2182 41.8768 45.3753C41.9269 45.4538 41.9649 45.5145 41.9906 45.5557C42.0034 45.5763 42.0132 45.5921 42.0198 45.6029C42.0231 45.6083 42.0257 45.6124 42.0274 45.6153C42.0283 45.6167 42.029 45.6178 42.0294 45.6186C42.0297 45.619 42.0299 45.6193 42.03 45.6195C42.0302 45.6198 42.0303 45.62 41.6886 45.828ZM14.0188 29.3923L10.864 35.3294L10.1575 34.954L13.3123 29.0169L14.0188 29.3923ZM10.5108 35.1417C10.492 34.7421 10.4922 34.7421 10.4925 34.7421C10.4926 34.7421 10.4929 34.7421 10.4931 34.7421C10.4936 34.742 10.4942 34.742 10.495 34.742C10.4965 34.7419 10.4985 34.7418 10.501 34.7417C10.5059 34.7415 10.5128 34.7413 10.5216 34.741C10.5393 34.7405 10.5647 34.7398 10.5976 34.7393C10.6634 34.7383 10.7595 34.7378 10.8842 34.74C11.1337 34.7443 11.4981 34.759 11.9659 34.8002C12.9016 34.8827 14.251 35.0711 15.9217 35.4944C19.2639 36.3413 23.8885 38.1272 29.0556 41.8795L28.5856 42.5268C23.5066 38.8385 18.9763 37.0937 15.7252 36.2699C14.0991 35.8579 12.7922 35.6761 11.8957 35.5972C11.4475 35.5577 11.1019 35.5439 10.8703 35.5399C10.7546 35.5379 10.6674 35.5383 10.6101 35.5392C10.5814 35.5396 10.5603 35.5402 10.5468 35.5406C10.5401 35.5408 10.5352 35.541 10.5324 35.5411C10.5309 35.5412 10.53 35.5412 10.5295 35.5412C10.5293 35.5412 10.5292 35.5413 10.5292 35.5413C10.5292 35.5413 10.5293 35.5412 10.5293 35.5412C10.5294 35.5412 10.5296 35.5412 10.5108 35.1417ZM28.6422 42.5612C22.1889 39.3454 16.1429 38.7829 11.7102 39.0237C9.49368 39.1441 7.68179 39.4654 6.4265 39.7558C5.79896 39.9009 5.31088 40.0382 4.98129 40.1387C4.81651 40.1889 4.69138 40.2299 4.6083 40.258C4.56675 40.2721 4.53572 40.2829 4.51551 40.2901C4.5054 40.2937 4.49799 40.2963 4.49333 40.298C4.49099 40.2989 4.48935 40.2995 4.48839 40.2998C4.48791 40.3 4.4876 40.3001 4.48747 40.3002C4.4874 40.3002 4.48743 40.3002 4.4874 40.3002C4.48747 40.3002 4.48759 40.3001 4.34867 39.925C4.20974 39.5499 4.20995 39.5498 4.21019 39.5498C4.21033 39.5497 4.21062 39.5496 4.2109 39.5495C4.21147 39.5493 4.2122 39.549 4.21311 39.5487C4.21493 39.548 4.21745 39.5471 4.22065 39.5459C4.22706 39.5436 4.23623 39.5403 4.24812 39.5361C4.27189 39.5277 4.30656 39.5156 4.35182 39.5002C4.44233 39.4696 4.57521 39.4261 4.74807 39.3734C5.09378 39.2681 5.59954 39.1259 6.24622 38.9763C7.53936 38.6773 9.3974 38.3482 11.6668 38.2249C16.206 37.9783 22.396 38.5548 28.999 41.8452L28.6422 42.5612ZM3.99517 39.7378L10.7135 27.0504L11.4205 27.4248L4.70216 40.1122L3.99517 39.7378ZM11.0128 27.6339C7.11144 27.0995 3.95892 24.7604 1.91794 21.7675C-0.120164 18.7789 -1.07419 15.1035 -0.54342 11.8476L0.246157 11.9763C-0.246676 14.9995 0.637878 18.4705 2.57888 21.3168C4.51701 24.1589 7.48414 26.3431 11.1213 26.8413L11.0128 27.6339ZM-0.543427 11.8477C0.225078 7.13051 3.62504 3.00625 7.7233 1.39828C9.77974 0.591423 12.0226 0.414681 14.1959 1.12948C16.3702 1.84464 18.438 3.44009 20.1658 6.1129L19.494 6.5472C17.8473 3.99978 15.9171 2.53778 13.9459 1.88943C11.9736 1.24072 9.92351 1.39439 8.0155 2.143C4.18485 3.64598 0.970067 7.53291 0.246163 11.9763L-0.543427 11.8477ZM19.4783 6.13934C20.5714 4.12402 22.4359 2.83226 24.5199 2.10147C26.6022 1.37125 28.9278 1.19128 30.9979 1.41367L30.9125 2.2091C28.9416 1.99737 26.7379 2.17142 24.7846 2.8564C22.8329 3.54081 21.1552 4.72545 20.1815 6.52075L19.4783 6.13934ZM30.9979 1.41367C37.1 2.06931 40.3016 6.39666 43.1791 11.2907C46.0823 16.2285 48.6654 21.7365 53.5137 25.2171L53.0471 25.867C48.0223 22.2596 45.3346 16.5352 42.4895 11.6962C39.6186 6.81349 36.5941 2.81956 30.9125 2.2091L30.9979 1.41367ZM53.1645 25.9249C49.6492 24.861 46.9356 22.4893 44.5873 19.7719C43.4125 18.4125 42.3221 16.958 41.2669 15.5284C40.2088 14.0948 39.1886 12.6898 38.1425 11.4092C36.0441 8.84043 33.9002 6.84994 31.2819 6.19031C28.6859 5.53627 25.5175 6.16783 21.3128 9.10018L20.8552 8.444C25.1637 5.43923 28.5715 4.68246 31.4774 5.41455C34.3611 6.14106 36.6447 8.31118 38.7621 10.9031C39.8239 12.2029 40.8588 13.6284 41.9106 15.0534C42.9654 16.4825 44.0398 17.9149 45.1926 19.2488C47.4994 21.9182 50.0919 24.1591 53.3963 25.1592L53.1645 25.9249ZM21.084 8.77209C21.4338 8.57804 21.4339 8.57828 21.4341 8.57853C21.4341 8.57862 21.4343 8.57888 21.4344 8.57906C21.4346 8.57943 21.4348 8.57983 21.435 8.58025C21.4355 8.5811 21.436 8.58206 21.4366 8.58312C21.4377 8.58525 21.4391 8.58781 21.4407 8.5908C21.4438 8.59678 21.4478 8.60449 21.4525 8.61388C21.4618 8.63266 21.474 8.65821 21.488 8.6903C21.5161 8.75445 21.5517 8.84491 21.5874 8.95966C21.6588 9.18919 21.7305 9.51657 21.741 9.92494C21.7623 10.7483 21.5345 11.8723 20.6081 13.1603L19.9586 12.6932C20.7855 11.5436 20.958 10.5902 20.9413 9.94563C20.9329 9.62004 20.876 9.36582 20.8235 9.19725C20.7973 9.11295 20.7723 9.05022 20.7551 9.01095C20.7465 8.99133 20.7399 8.97762 20.7361 8.97006C20.7343 8.96628 20.7331 8.96404 20.7327 8.96338C20.7326 8.96305 20.7326 8.96311 20.7328 8.96357C20.733 8.9638 20.7331 8.96413 20.7334 8.96456C20.7335 8.96477 20.7336 8.96501 20.7338 8.96528C20.7339 8.96541 20.734 8.96563 20.734 8.96569C20.7341 8.96592 20.7343 8.96615 21.084 8.77209ZM19.8868 12.9794C19.2868 8.45563 15.6024 5.58465 11.8857 5.31482C10.0338 5.18037 8.18611 5.69301 6.70834 6.95973C5.2315 8.22566 4.09037 10.2741 3.70889 13.2716L2.91529 13.1706C3.3166 10.0173 4.53156 7.77195 6.18769 6.35234C7.84289 4.93353 9.90508 4.36892 11.9436 4.51692C16.0077 4.81197 20.0261 7.94459 20.6799 12.8742L19.8868 12.9794ZM3.70889 13.2716C3.26829 16.7365 4.61149 19.5272 6.90498 21.3819C9.20896 23.2452 12.4868 24.1724 15.8971 23.8403L15.9746 24.6366C12.3817 24.9864 8.88853 24.0149 6.40193 22.004C3.90483 19.9846 2.4378 16.9256 2.91528 13.1706L3.70889 13.2716ZM15.9359 24.2385C15.5642 24.3862 15.5641 24.3861 15.5641 24.3859C15.564 24.3859 15.564 24.3857 15.5639 24.3856C15.5638 24.3853 15.5637 24.385 15.5635 24.3846C15.5632 24.3839 15.5629 24.3829 15.5624 24.3817C15.5615 24.3793 15.5602 24.3761 15.5586 24.372C15.5555 24.3638 15.5511 24.3523 15.5455 24.3374C15.5345 24.3078 15.5189 24.2651 15.5 24.2105C15.4621 24.1014 15.4107 23.9447 15.3548 23.7496C15.2433 23.3601 15.1128 22.8142 15.0375 22.1879C14.8884 20.9479 14.9479 19.3255 15.8817 17.997L16.5362 18.457C15.7692 19.5483 15.6922 20.9315 15.8318 22.0924C15.9008 22.6665 16.0209 23.1697 16.1239 23.5293C16.1753 23.7087 16.2222 23.8515 16.2558 23.9483C16.2725 23.9967 16.286 24.0335 16.295 24.0576C16.2995 24.0697 16.3029 24.0786 16.305 24.0841C16.3061 24.0869 16.3069 24.0889 16.3073 24.09C16.3075 24.0905 16.3077 24.0909 16.3077 24.091C16.3077 24.091 16.3077 24.091 16.3077 24.091C16.3077 24.091 16.3077 24.0909 16.3077 24.0909C16.3076 24.0908 16.3076 24.0907 15.9359 24.2385ZM16.209 18.227C16.6089 18.2239 16.6089 18.2237 16.6089 18.2235C16.6089 18.2235 16.6089 18.2233 16.6089 18.2233C16.6089 18.2231 16.6089 18.2231 16.6089 18.2232C16.6089 18.2233 16.6089 18.2238 16.609 18.2246C16.609 18.2262 16.609 18.2292 16.6092 18.2335C16.6094 18.2422 16.6098 18.2561 16.6107 18.2752C16.6124 18.3132 16.6157 18.3715 16.6221 18.4476C16.6351 18.5999 16.6606 18.8234 16.7108 19.1001C16.8113 19.6542 17.0101 20.4177 17.4023 21.2491C18.1828 22.9036 19.7355 24.8431 22.8561 25.9391L22.591 26.6939C19.243 25.518 17.5384 23.4128 16.6788 21.5905C16.2509 20.6835 16.0339 19.8506 15.9236 19.2429C15.8685 18.9387 15.8398 18.69 15.825 18.5153C15.8176 18.4279 15.8136 18.3589 15.8114 18.3106C15.8104 18.2865 15.8098 18.2675 15.8094 18.254C15.8092 18.2473 15.8091 18.2419 15.8091 18.2379C15.809 18.2359 15.809 18.2343 15.809 18.233C15.809 18.2323 15.809 18.2318 15.809 18.2313C15.809 18.2311 15.809 18.2308 15.809 18.2307C15.809 18.2304 15.809 18.2302 16.209 18.227ZM22.7236 26.3165C22.3646 26.493 22.3645 26.4928 22.3644 26.4926C22.3644 26.4925 22.3642 26.4922 22.3641 26.492C22.3639 26.4916 22.3637 26.4911 22.3634 26.4905C22.3629 26.4894 22.3622 26.488 22.3613 26.4862C22.3596 26.4827 22.3573 26.4779 22.3545 26.4719C22.3488 26.4598 22.341 26.4428 22.3312 26.4211C22.3117 26.3776 22.2845 26.315 22.2521 26.2345C22.1874 26.0738 22.1014 25.8416 22.0134 25.5487C21.8375 24.9637 21.6519 24.1329 21.6117 23.1443C21.5309 21.1592 22.0376 18.5487 24.3519 16.0388L24.94 16.5811C22.7919 18.9108 22.3374 21.3035 22.411 23.1118C22.448 24.0199 22.6186 24.7834 22.7795 25.3184C22.8598 25.5856 22.9375 25.7948 22.9942 25.9356C23.0225 26.0059 23.0456 26.059 23.0611 26.0935C23.0688 26.1108 23.0747 26.1234 23.0784 26.1312C23.0802 26.1352 23.0815 26.1379 23.0822 26.1393C23.0826 26.1401 23.0828 26.1405 23.0828 26.1406C23.0829 26.1407 23.0829 26.1407 23.0828 26.1406C23.0828 26.1405 23.0827 26.1404 23.0827 26.1404C23.0826 26.1402 23.0826 26.1401 22.7236 26.3165Z" fill="white" mask="url(#path-3-inside-1_189_96)"/>
</g>
<g clip-path="url(#clip4_189_96)">
<path d="M8.4106 63C7.8756 63 7.6081 62.6916 7.6081 62.0749C7.6081 61.4582 8.03164 61.1499 8.87872 61.1499L12.6906 61.3933V49.6807L10.5506 49.8755C9.65892 49.8755 9.21309 49.5671 9.21309 48.9504C9.21309 48.7232 9.68121 48.5285 10.6175 48.3662C11.5983 48.1714 12.2001 48.074 12.4231 48.074C12.4231 42.1667 11.5983 38.3042 9.94871 36.4865C9.50288 35.9997 8.96788 35.7562 8.34372 35.7562L6.40436 35.8536C5.46812 35.8536 5 35.5452 5 34.9285C5 34.5066 5.31208 34.1982 5.93624 34.0035C7.94247 33.9061 9.79267 33.8574 11.4868 33.8574H17.3718C28.3392 33.8574 36.3641 35.1557 41.4466 37.7524C44.2107 39.1481 45.5928 41.1443 45.5928 43.7409C45.5928 45.6884 44.8349 47.4736 43.319 49.0965C42.6503 49.8105 41.6918 50.4922 40.4434 51.1413C39.1951 51.758 37.7685 52.2449 36.1635 52.6019C34.6031 52.9265 33.065 53.1537 31.5491 53.2836C29.6767 53.4458 27.3138 53.527 24.4605 53.527V60.5656L25.263 61.1499C25.5304 61.1174 25.9317 61.1012 26.4667 61.1012H28.2054C29.9887 61.1012 31.1256 61.1499 31.616 61.2473C32.3293 61.4096 33.0204 61.7828 33.6891 62.3671L32.8198 63H8.4106ZM28.406 51.2874L31.081 51.2387C33.4439 51.1413 35.0712 50.2487 35.9629 48.5609C36.4979 47.4898 36.7654 46.2239 36.7654 44.7633C36.7654 43.2703 36.6762 42.1504 36.4979 41.4039C36.3641 40.6574 36.0743 39.9758 35.6285 39.3591C34.4247 37.7037 31.8612 36.6326 27.9379 36.1457C25.8425 35.886 24.0815 35.7562 22.6548 35.7562C22.6548 36.0159 22.6548 36.2755 22.6548 36.5352C22.6548 41.2092 23.0338 45.1204 23.7917 48.2688C24.0592 49.3074 24.3044 50.0215 24.5273 50.411C24.7948 50.8005 25.1738 51.0439 25.6642 51.1413C26.1546 51.2387 27.0686 51.2874 28.406 51.2874Z" fill="#F02525"/>
</g>
</g>
<defs>
<clipPath id="clip0_189_96">
<rect width="64" height="64" fill="white"/>
</clipPath>
<clipPath id="clip1_189_96">
<rect width="40.5928" height="29.1426" fill="white" transform="translate(5 33.8574)"/>
</clipPath>
<clipPath id="clip2_189_96">
<rect width="67.7226" height="50.1164" fill="white" transform="matrix(-0.893841 -0.448384 -0.448384 0.893841 70.5176 20.7729)"/>
</clipPath>
<clipPath id="clip3_189_96">
<rect width="68.7734" height="59.8021" fill="white" transform="matrix(-0.893841 -0.448384 -0.448384 0.893841 76.5986 13.4175)"/>
</clipPath>
<clipPath id="clip4_189_96">
<rect width="19" height="29" fill="white" transform="translate(27 34)"/>
</clipPath>
</defs>
</svg>
